<svg xmlns="http://www.w3.org/2000/svg" viewBox="0 0 100 100">
  <style>
    @media (prefers-color-scheme: dark) {
      svg { fill: white; }
    }
  </style>
  <path d="m 48.500842,77.633027 q 0,10.740223 -5.84481,16.436695 -5.81515,5.666804 -16.76305,5.666804 h -12.016 V 56.360267 h 13.29176 q 10.11717,0 15.72463,5.607463 5.60747,5.607465 5.60747,15.665297 z m -5.34044,0.178015 q 0,-8.485369 -4.27235,-12.787391 -4.24268,-4.302023 -12.63905,-4.302023 h -7.32827 v 34.653534 h 6.14151 q 9.01941,0 13.55879,-4.420699 4.53937,-4.450368 4.53937,-13.143421 z M 67.38671,99.736526 H 62.34296 V 56.360267 H 86.5233 v 4.480037 H 67.38671 V 76.713285 H 85.3662 v 4.480038 H 67.38671 Z M 88.232394,32.721499 q 0,5.726141 -4.15368,8.930407 -4.15368,3.204265 -11.27427,3.204265 -7.71397,0 -11.86764,-1.987831 v -4.865736 q 2.67021,1.127425 5.81514,1.780147 3.14492,0.652721 6.23051,0.652721 5.04375,0 7.5953,-1.898824 2.55155,-1.928493 2.55155,-5.340443 0,-2.254853 -0.91974,-3.678971 -0.89009,-1.453787 -3.02626,-2.670221 -2.10651,-1.216434 -6.43819,-2.759229 -6.05251,-2.165846 -8.66339,-5.132758 -2.58121,-2.966913 -2.58121,-7.743641 0,-5.0140812 3.76797,-7.9809935 3.76797,-2.96691208 9.96882,-2.96691208 6.46788,0 11.89732,2.37352978 l -1.57245,4.3910301 q -5.37012,-2.2548534 -10.44355,-2.2548534 -4.00531,0 -6.26018,1.7208091 -2.25484,1.7208093 -2.25484,4.776729 0,2.254853 0.83074,3.70864 0.83072,1.424118 2.78889,2.640552 1.98782,1.186765 6.0525,2.640553 6.8239,2.432867 9.37543,5.221764 2.58123,2.788898 2.58123,7.239266 z M 42.997021,43.81775 37.597231,30.021606 H 20.211121 L 14.870691,43.81775 H 9.767601 L 26.916341,0.2634768 h 4.24269 L 48.218781,43.81775 Z m -6.97225,-18.33552 -5.04375,-13.440112 q -0.97908,-2.5515449 -2.0175,-6.2601844 -0.65272,2.8482362 -1.86915,6.2601844 l -5.1031,13.440112 z"/>
</svg>
